<svg xmlns="http://www.w3.org/2000/svg" width="30" height="30" viewBox="0 0 30 30"><path d="M10.37 26.39c0 .13-.14.24-.33.24-.2.02-.35-.09-.35-.24 0-.13.15-.24.33-.24.19-.02.35.09.35.24Zm-1.94-.3c-.05.13.08.29.26.33.17.06.35 0 .4-.14.03-.13-.09-.28-.28-.34-.16-.05-.34.02-.38.15Zm2.76-.11c-.18.04-.3.17-.29.32.02.14.18.22.37.18.18-.05.3-.18.29-.3-.02-.14-.2-.22-.37-.2ZM15.3.53C6.63.53 0 7.53 0 16.73 0 24.1 4.36 30.4 10.6 32.62c.8.15 1.08-.37 1.08-.8l-.02-4.08s-4.38 1-5.3-1.98c0 0-.71-1.93-1.74-2.43 0 0-1.43-1.04.1-1.02 0 0 1.56.13 2.42 1.7 1.37 2.57 3.66 1.84 4.55 1.4.15-1.07.55-1.8 1-2.24-3.49-.41-7.01-.95-7.01-7.34a5.2 5.2 0 0 1 1.47-3.91c-.16-.43-.7-2.21.16-4.5 1.3-.44 4.32 1.78 4.32 1.78a13.88 13.88 0 0 1 7.85 0s3-2.23 4.3-1.79c.86 2.3.33 4.08.17 4.51 1 1.18 1.61 2.1 1.61 3.91 0 6.4-3.68 6.92-7.17 7.34.57.52 1.06 1.52 1.06 3.08l-.02 5.55c0 .43.29.96 1.08.8C26.76 30.4 31 24.1 31 16.74 31 7.53 23.97.53 15.3.53Zm-9.23 22.9c-.08.07-.06.22.05.35.1.1.24.15.32.07.08-.07.07-.22-.04-.35-.1-.1-.24-.15-.33-.07Zm-.67-.53c-.04.08.02.19.14.26.1.06.23.04.27-.05.05-.09-.02-.2-.14-.26-.13-.04-.23-.02-.27.05Zm2.02 2.36c-.1.09-.06.29.09.41.14.16.32.18.4.07.08-.09.05-.29-.08-.41-.14-.16-.32-.18-.4-.07Zm-.7-.98c-.1.07-.1.24 0 .4.1.15.26.22.34.15.1-.09.1-.26 0-.41-.08-.16-.25-.22-.35-.14Z"/></svg>