<svg xmlns="http://www.w3.org/2000/svg" width="30" height="30" viewBox="0 0 30 30" fill="none"><g clip-path="url(#a)"><path fill="#000" d="M20.63 15c0 1.3-.08 2.55-.2 3.75H9.57a35.04 35.04 0 0 1 0-7.5h10.86c.13 1.2.2 2.45.2 3.75Zm1.68-3.75h7.22a14.95 14.95 0 0 1 0 7.5H22.3a37.03 37.03 0 0 0 0-7.5Zm6.6-1.88h-6.84C21.5 5.63 20.33 2.5 18.83.5A15.03 15.03 0 0 1 28.9 9.37h.01Zm-8.74 0H9.83c.35-2.13.9-4.01 1.58-5.54A9.57 9.57 0 0 1 13.37.8C14.03.19 14.57 0 15 0c.43 0 .97.19 1.63.8a9.57 9.57 0 0 1 1.96 3.03 22.9 22.9 0 0 1 1.58 5.54Zm-12.24 0H1.09A15.04 15.04 0 0 1 11.17.5c-1.5 2-2.66 5.14-3.24 8.88ZM.47 11.25H7.7a37.02 37.02 0 0 0 0 7.5H.47a14.95 14.95 0 0 1 0-7.5Zm10.94 14.92a23.2 23.2 0 0 1-1.58-5.55h10.34c-.35 2.14-.9 4.02-1.58 5.55a9.57 9.57 0 0 1-1.96 3.02c-.66.62-1.2.81-1.63.81-.43 0-.97-.19-1.63-.8a9.57 9.57 0 0 1-1.96-3.03Zm-3.48-5.55c.58 3.75 1.74 6.88 3.24 8.89a15.04 15.04 0 0 1-10.08-8.89h6.84Zm20.98 0a15.04 15.04 0 0 1-10.07 8.89c1.5-2 2.65-5.14 3.24-8.89h6.83Z"/></g><defs><clipPath id="a"><path d="M0 0h30v30H0z"/></clipPath></defs></svg>